<svg xmlns="http://www.w3.org/2000/svg" viewBox="0 0 24 24" fill="none" stroke="currentColor" stroke-width="1.5" stroke-linecap="round" stroke-linejoin="round">
  <path d="M4.5 10.5c0-4.5 3-7.5 7.5-7.5s7.5 3 7.5 7.5c0 4-2.5 7-5.5 8.5-1 .5-2 1-2 1s-1-.5-2-1c-3-1.5-5.5-4.5-5.5-8.5z"/>
  <path d="M12 3v17"/>
  <path d="M6.5 8.5h3"/>
  <path d="M6.5 11.5h3.5"/>
  <path d="M14.5 8.5h3"/>
  <path d="M14 11.5h3.5"/>
  <path d="M8 14.5h2"/>
  <path d="M14 14.5h2"/>
  <path d="M3 20.5c1.5 0 1.5-2 3-2s1.5 2 3 2 1.5-2 3-2 1.5 2 3 2 1.5-2 3-2"/>
  <path d="M3 22.5c1.5 0 1.5-2 3-2s1.5 2 3 2 1.5-2 3-2 1.5 2 3 2 1.5-2 3-2"/>
</svg>
